<svg width="33" height="32" viewBox="0 0 33 32" fill="none" xmlns="http://www.w3.org/2000/svg">
<path d="M30.0068 16C30.0068 8.7613 24.1387 2.89319 16.9 2.89319C9.66136 2.89319 3.79324 8.7613 3.79324 16C3.79324 23.2387 9.66136 29.1068 16.9 29.1068C24.1387 29.1068 30.0068 23.2387 30.0068 16Z" fill="url(#paint0_linear_112_17039)"/>
<path d="M30.0068 16C30.0068 8.7613 24.1387 2.89319 16.9 2.89319C9.66136 2.89319 3.79324 8.7613 3.79324 16C3.79324 23.2387 9.66136 29.1068 16.9 29.1068C24.1387 29.1068 30.0068 23.2387 30.0068 16Z" stroke="white" stroke-width="2.21363"/>
<path d="M20.7827 15.2518C20.976 15.2392 21.1758 15.2488 21.3699 15.249L22.4773 15.2493L23.9542 15.2488L24.4304 15.249C24.5321 15.249 24.6442 15.2398 24.7424 15.2681L24.7631 15.2746L24.8248 15.2958C25.012 15.3734 25.1576 15.5188 25.2329 15.708L25.2402 15.7267C25.3032 15.8821 25.3249 16.1479 25.2635 16.3058L25.2565 16.3227C25.1782 16.5186 25.0552 16.656 24.8607 16.7419C24.7995 16.769 24.7306 16.7822 24.6656 16.7974C24.4292 16.8109 24.1868 16.7997 23.9496 16.7999L22.5419 16.8003L21.3987 16.7997C21.1998 16.7994 20.9482 16.8273 20.7564 16.7798L20.73 16.7729L20.6557 16.7522C20.4648 16.6838 20.3076 16.4986 20.2228 16.319C20.1454 16.1548 20.1326 15.9334 20.1977 15.7627C20.2716 15.5696 20.4298 15.384 20.6208 15.303L20.7827 15.2518Z" fill="black"/>
<path d="M9.97283 15.2395L12.5613 15.2353L13.2676 15.2346C13.4112 15.2328 13.5592 15.2218 13.7022 15.2312C13.7596 15.2351 13.8198 15.247 13.8733 15.2679L13.8901 15.2746L13.9895 15.3162C14.1725 15.4099 14.3148 15.5968 14.3719 15.7931C14.4355 16.0122 14.4104 16.2458 14.2934 16.4423C14.2016 16.5966 14.0433 16.7374 13.8645 16.7784L13.7758 16.801C13.5792 16.8423 13.3492 16.8202 13.1471 16.8199L11.994 16.8158L10.536 16.8172L10.1433 16.8188C10.0388 16.8201 9.92715 16.8271 9.82563 16.7984C9.63691 16.7451 9.48667 16.619 9.39163 16.4488C9.29515 16.2759 9.27955 15.96 9.33731 15.7698L9.34451 15.7474L9.36467 15.6801C9.42707 15.5118 9.56451 15.3674 9.72851 15.2973L9.74595 15.29L9.78667 15.2722C9.84579 15.2486 9.91011 15.2453 9.97283 15.2395Z" fill="black"/>
<path d="M9.92532 12.0103L14.1436 12.004C14.2753 12.0046 14.3494 12.0186 14.4595 12.0978C14.5824 12.1861 14.6948 12.3234 14.8028 12.431L15.522 13.1502L17.297 14.9065L19.5456 12.6547L19.904 12.2994C19.9792 12.2233 20.056 12.1211 20.1496 12.0691C20.2027 12.0397 20.2656 12.0121 20.3268 12.0071C20.4617 11.9962 20.6048 12.0056 20.7404 12.0054L21.5418 12.0049L23.6573 12.0048L24.3406 12.0043C24.472 12.0042 24.6388 11.9858 24.763 12.0261L24.784 12.0335L24.8374 12.0528L24.8533 12.0595C24.9994 12.1193 25.1289 12.2151 25.1988 12.3602L25.2093 12.3824C25.3009 12.5714 25.3288 12.8579 25.2636 13.0592L25.2565 13.0795C25.2335 13.1499 25.2053 13.2122 25.1628 13.2737C25.0698 13.4082 24.9186 13.5286 24.7538 13.5573L24.7354 13.5602C24.5957 13.5849 24.4556 13.576 24.3142 13.5754L23.7202 13.5734L21.624 13.5757L21.188 13.5763C21.067 13.5769 20.9564 13.571 20.8415 13.6145L20.8188 13.6233C20.7979 13.6306 20.78 13.6339 20.7617 13.6477C20.694 13.699 20.632 13.7758 20.5721 13.8365L20.1891 14.2261L19.0381 15.3834L18.5608 15.8567C18.5256 15.8912 18.4409 15.9548 18.4199 15.9958C18.4153 16.0045 18.4168 16.0153 18.4153 16.025C18.4616 16.0958 18.5248 16.1532 18.5843 16.2126L18.9612 16.577L20.3153 17.9385L20.7186 18.3458C20.7502 18.3762 20.7809 18.4 20.8218 18.4174L20.8409 18.425C20.8745 18.4404 20.9004 18.4542 20.9386 18.4576C21.0456 18.4672 21.1595 18.4599 21.2672 18.46H21.8959L23.8556 18.4516L24.4628 18.4462C24.5772 18.4473 24.7146 18.4442 24.8222 18.4841L24.8394 18.4909L24.9157 18.5212C25.0789 18.6038 25.2096 18.761 25.2613 18.9359L25.2671 18.9561C25.3091 19.0979 25.3071 19.3676 25.2625 19.5105L25.2556 19.5312C25.2404 19.579 25.2238 19.6222 25.2002 19.6666C25.1105 19.835 24.9425 19.969 24.76 20.0231L24.687 20.0431C24.3407 20.072 23.9771 20.0465 23.6283 20.0474L21.4299 20.0465L20.718 20.0462C20.584 20.0462 20.4199 20.0664 20.2929 20.0227L20.2725 20.0152C20.1915 19.9857 20.12 19.9317 20.056 19.8746C19.9479 19.7784 19.8488 19.6694 19.7462 19.5673L19.103 18.9281L17.2958 17.1322C17.0391 17.3554 16.8007 17.6139 16.5588 17.8542L15.3414 19.0723L14.7711 19.6462C14.6747 19.7422 14.579 19.8541 14.4718 19.9367C14.4038 19.989 14.3043 20.029 14.2204 20.0434L14.2019 20.0462C13.9933 20.0821 13.7627 20.0606 13.5505 20.0608L12.532 20.0661L10.8682 20.0683C10.5942 20.0686 10.3096 20.0852 10.0371 20.0666C9.96284 20.0614 9.8634 20.0413 9.79452 20.0138C9.62652 19.9468 9.44988 19.7761 9.37556 19.6104L9.36484 19.5858L9.34756 19.5463L9.34172 19.5312C9.2894 19.4002 9.2898 19.0925 9.33628 18.9609L9.35628 18.9008C9.4158 18.7263 9.54788 18.5934 9.70908 18.5109C9.78308 18.473 9.85868 18.4473 9.94204 18.439C10.0556 18.4278 10.1775 18.4363 10.292 18.4362L10.951 18.4359L13.0654 18.4355C13.261 18.4356 13.4819 18.4564 13.6753 18.434C13.7526 18.425 13.8324 18.3671 13.8897 18.3169C14.0382 18.1865 14.1756 18.0331 14.3151 17.8926L15.1797 17.0196L15.7875 16.4134C15.9225 16.2825 16.0676 16.1587 16.1891 16.0148L15.7765 15.6023L14.642 14.4687L14.1952 14.0149C14.096 13.91 14 13.7969 13.8947 13.6983C13.8483 13.6549 13.7893 13.6065 13.7272 13.5875C13.6198 13.5549 13.4943 13.5714 13.3833 13.5717L12.8072 13.5725L11.186 13.5708L10.4088 13.5751C10.2124 13.5771 9.9846 13.6065 9.79652 13.5454C9.61228 13.4855 9.4522 13.3522 9.36956 13.1766L9.35996 13.1557C9.28508 12.9988 9.28396 12.7173 9.3366 12.5523L9.34348 12.532C9.35756 12.4869 9.37116 12.4448 9.39284 12.4026C9.47868 12.2359 9.63684 12.0933 9.81796 12.0379L9.92532 12.0103Z" fill="black"/>
<defs>
<linearGradient id="paint0_linear_112_17039" x1="28.9" y1="28" x2="11.3" y2="6.4" gradientUnits="userSpaceOnUse">
<stop stop-color="white"/>
<stop offset="1" stop-color="#9A9A9A"/>
</linearGradient>
</defs>
</svg>
