<svg width="40" height="40" viewBox="0 0 40 40" fill="none" xmlns="http://www.w3.org/2000/svg">
<path d="M36.8835 20C36.8835 10.9516 29.5484 3.61646 20.5 3.61646C11.4517 3.61646 4.11652 10.9516 4.11652 20C4.11652 29.0483 11.4517 36.3835 20.5 36.3835C29.5484 36.3835 36.8835 29.0483 36.8835 20Z" fill="url(#paint0_linear_112_17032)"/>
<path d="M36.8835 20C36.8835 10.9516 29.5484 3.61646 20.5 3.61646C11.4517 3.61646 4.11652 10.9516 4.11652 20C4.11652 29.0483 11.4517 36.3835 20.5 36.3835C29.5484 36.3835 36.8835 29.0483 36.8835 20Z" stroke="white" stroke-width="2.76704"/>
<path d="M25.3533 19.0648C25.595 19.049 25.8447 19.061 26.0873 19.0612L27.4716 19.0616L29.3177 19.061L29.913 19.0612C30.0401 19.0612 30.1802 19.0498 30.3029 19.0851L30.3288 19.0933L30.4059 19.1197C30.64 19.2168 30.8219 19.3985 30.9161 19.635L30.9252 19.6584C31.0039 19.8526 31.0311 20.1849 30.9543 20.3823L30.9456 20.4034C30.8477 20.6483 30.694 20.82 30.4508 20.9274C30.3743 20.9612 30.2882 20.9777 30.207 20.9968C29.9115 21.0136 29.6085 20.9996 29.3119 20.9999L27.5523 21.0004L26.1233 20.9996C25.8747 20.9992 25.5602 21.0341 25.3204 20.9747L25.2874 20.9661L25.1946 20.9402C24.956 20.8548 24.7595 20.6233 24.6535 20.3987C24.5567 20.1935 24.5407 19.9167 24.6221 19.7034C24.7145 19.462 24.9122 19.23 25.151 19.1287L25.3533 19.0648Z" fill="black"/>
<path d="M11.841 19.0494L15.0766 19.0441L15.9594 19.0432C16.1389 19.041 16.324 19.0272 16.5027 19.039C16.5744 19.0439 16.6497 19.0587 16.7166 19.0849L16.7376 19.0932L16.8618 19.1452C17.0906 19.2624 17.2684 19.496 17.3398 19.7414C17.4193 20.0153 17.3879 20.3073 17.2417 20.5529C17.127 20.7457 16.9291 20.9217 16.7056 20.973L16.5947 21.0012C16.3489 21.0529 16.0614 21.0253 15.8088 21.0249L14.3675 21.0197L12.545 21.0215L12.0541 21.0235C11.9234 21.0251 11.7839 21.0339 11.657 20.998C11.4211 20.9314 11.2333 20.7737 11.1145 20.561C10.9939 20.3449 10.9744 19.95 11.0466 19.7122L11.0556 19.6843L11.0808 19.6001C11.1588 19.3897 11.3306 19.2092 11.5356 19.1216L11.5574 19.1125L11.6083 19.0902C11.6822 19.0608 11.7626 19.0566 11.841 19.0494Z" fill="black"/>
<path d="M11.7816 15.0129L17.0545 15.005C17.2191 15.0057 17.3117 15.0233 17.4493 15.1222C17.603 15.2326 17.7435 15.4043 17.8785 15.5388L18.7774 16.4378L20.9962 18.6331L23.807 15.8184L24.2549 15.3742C24.3489 15.2791 24.4449 15.1514 24.5619 15.0864C24.6283 15.0496 24.7069 15.0151 24.7835 15.0089C24.9521 14.9952 25.131 15.007 25.3004 15.0068L26.3022 15.0061L28.9466 15.006L29.8007 15.0054C29.9649 15.0052 30.1735 14.9822 30.3287 15.0326L30.3549 15.0419L30.4217 15.066L30.4416 15.0744C30.6242 15.1491 30.7861 15.2689 30.8734 15.4502L30.8866 15.478C31.0011 15.7142 31.0359 16.0724 30.9544 16.324L30.9456 16.3494C30.9168 16.4374 30.8816 16.5153 30.8285 16.5921C30.7122 16.7602 30.5232 16.9108 30.3172 16.9466L30.2942 16.9503C30.1196 16.9811 29.9444 16.97 29.7677 16.9692L29.0252 16.9668L26.405 16.9696L25.86 16.9704C25.7087 16.9711 25.5705 16.9637 25.4268 17.0181L25.3984 17.0291C25.3723 17.0382 25.35 17.0424 25.3271 17.0596C25.2424 17.1237 25.165 17.2198 25.0901 17.2956L24.6113 17.7826L23.1726 19.2293L22.5759 19.8209C22.532 19.864 22.4261 19.9435 22.3998 19.9947C22.3941 20.0056 22.396 20.0191 22.3941 20.0313C22.452 20.1197 22.5309 20.1915 22.6053 20.2658L23.0765 20.7212L24.7691 22.4231L25.2732 22.9323C25.3127 22.9702 25.3511 23 25.4022 23.0217L25.4261 23.0312C25.4681 23.0505 25.5004 23.0677 25.5482 23.072C25.6819 23.084 25.8243 23.0749 25.9589 23.075H26.7448L29.1944 23.0645L29.9535 23.0577C30.0964 23.0591 30.2682 23.0552 30.4027 23.1051L30.4242 23.1136L30.5196 23.1515C30.7236 23.2548 30.8869 23.4512 30.9516 23.6699L30.9588 23.6951C31.0113 23.8724 31.0088 24.2095 30.9531 24.3881L30.9444 24.414C30.9255 24.4738 30.9047 24.5278 30.8752 24.5833C30.7631 24.7938 30.5531 24.9612 30.3249 25.0289L30.2337 25.0539C29.8008 25.09 29.3463 25.0581 28.9103 25.0593L26.1623 25.0581L25.2724 25.0578C25.1049 25.0577 24.8998 25.083 24.7411 25.0284L24.7156 25.019C24.6143 24.9821 24.525 24.9146 24.4449 24.8433C24.3098 24.723 24.186 24.5867 24.0577 24.4591L23.2537 23.6601L20.9947 21.4152C20.6738 21.6943 20.3758 22.0174 20.0734 22.3177L18.5517 23.8404L17.8388 24.5578C17.7183 24.6778 17.5987 24.8176 17.4647 24.9209C17.3797 24.9863 17.2553 25.0363 17.1505 25.0542L17.1273 25.0578C16.8666 25.1026 16.5783 25.0757 16.3131 25.076L15.0399 25.0826L12.9602 25.0854C12.6177 25.0857 12.262 25.1065 11.9213 25.0832C11.8285 25.0768 11.7042 25.0516 11.6181 25.0172C11.4081 24.9335 11.1873 24.7201 11.0944 24.513L11.081 24.4822L11.0594 24.4329L11.0521 24.414C10.9867 24.2503 10.9872 23.8656 11.0453 23.7011L11.0703 23.626C11.1447 23.4079 11.3098 23.2418 11.5113 23.1386C11.6038 23.0912 11.6983 23.0591 11.8025 23.0488C11.9445 23.0347 12.0968 23.0454 12.24 23.0452L13.0637 23.0449L15.7067 23.0444C15.9512 23.0445 16.2273 23.0705 16.4691 23.0425C16.5657 23.0312 16.6654 22.9589 16.7371 22.8961C16.9227 22.7331 17.0945 22.5414 17.2688 22.3658L18.3496 21.2745L19.1093 20.5168C19.2781 20.3531 19.4594 20.1984 19.6113 20.0185L19.0956 19.5029L17.6774 18.0859L17.119 17.5186C16.995 17.3875 16.875 17.2461 16.7433 17.1229C16.6853 17.0686 16.6116 17.0081 16.5339 16.9844C16.3997 16.9436 16.2428 16.9642 16.1041 16.9646L15.3839 16.9656L13.3575 16.9635L12.386 16.9689C12.1404 16.9714 11.8557 17.0081 11.6206 16.9318C11.3903 16.8569 11.1902 16.6903 11.0869 16.4708L11.0749 16.4446C10.9813 16.2485 10.9799 15.8966 11.0457 15.6904L11.0543 15.665C11.0719 15.6086 11.0889 15.556 11.116 15.5033C11.2233 15.2949 11.421 15.1166 11.6474 15.0474L11.7816 15.0129Z" fill="black"/>
<defs>
<linearGradient id="paint0_linear_112_17032" x1="35.5" y1="35" x2="13.5" y2="7.99997" gradientUnits="userSpaceOnUse">
<stop stop-color="white"/>
<stop offset="1" stop-color="#9A9A9A"/>
</linearGradient>
</defs>
</svg>
