<svg width="20" height="20" viewBox="0 0 20 20" fill="none" xmlns="http://www.w3.org/2000/svg">
<path d="M18.4417 9.99998C18.4417 5.4758 14.7742 1.80823 10.25 1.80823C5.7258 1.80823 2.05823 5.4758 2.05823 9.99998C2.05823 14.5242 5.7258 18.1917 10.25 18.1917C14.7742 18.1917 18.4417 14.5242 18.4417 9.99998Z" fill="url(#paint0_linear_106_16974)"/>
<path d="M18.4417 9.99998C18.4417 5.4758 14.7742 1.80823 10.25 1.80823C5.7258 1.80823 2.05823 5.4758 2.05823 9.99998C2.05823 14.5242 5.7258 18.1917 10.25 18.1917C14.7742 18.1917 18.4417 14.5242 18.4417 9.99998Z" stroke="white" stroke-width="1.38352"/>
<path d="M12.6766 9.53239C12.7975 9.52449 12.9224 9.53052 13.0437 9.53059L13.7358 9.53079L14.6589 9.53052L14.9565 9.53059C15.0201 9.53059 15.0901 9.5249 15.1515 9.54257L15.1644 9.54666L15.203 9.55983C15.32 9.60841 15.411 9.69926 15.458 9.81748L15.4626 9.8292C15.502 9.92629 15.5156 10.0925 15.4772 10.1911L15.4728 10.2017C15.4239 10.3241 15.347 10.41 15.2254 10.4637C15.1872 10.4806 15.1441 10.4889 15.1035 10.4984C14.9558 10.5068 14.8043 10.4998 14.656 10.4999L13.7761 10.5002L13.0617 10.4998C12.9373 10.4996 12.7801 10.5171 12.6602 10.4873L12.6437 10.483L12.5973 10.4701C12.478 10.4274 12.3798 10.3117 12.3268 10.1993C12.2784 10.0968 12.2703 9.95837 12.3111 9.85172C12.3572 9.731 12.4561 9.61499 12.5755 9.56433L12.6766 9.53239Z" fill="black"/>
<path d="M5.92051 9.52471L7.53829 9.52207L7.9797 9.52159C8.06947 9.52048 8.16199 9.51362 8.25133 9.51951C8.28719 9.52194 8.32484 9.52935 8.35829 9.54245L8.36878 9.54661L8.4309 9.57259C8.54529 9.63122 8.6342 9.74799 8.66989 9.87072C8.70967 10.0077 8.69394 10.1537 8.62083 10.2765C8.56351 10.3729 8.46453 10.4609 8.35278 10.4865L8.29736 10.5006C8.17445 10.5264 8.03071 10.5126 7.90439 10.5124L7.18376 10.5099L6.2725 10.5108L6.02707 10.5117C5.96169 10.5126 5.89195 10.5169 5.82848 10.499C5.71055 10.4657 5.61665 10.3869 5.55727 10.2805C5.49697 10.1724 5.48718 9.97502 5.52329 9.8561L5.52779 9.84217L5.54038 9.80003C5.57942 9.69484 5.66529 9.60461 5.76778 9.56081L5.77872 9.55624L5.80417 9.54508C5.8411 9.53039 5.88128 9.52831 5.92051 9.52471Z" fill="black"/>
<path d="M5.8908 7.50643L8.52727 7.50248C8.60954 7.50285 8.65584 7.51163 8.72465 7.56109C8.8015 7.61632 8.87177 7.70213 8.93927 7.76939L9.38868 8.2189L10.4981 9.31654L11.9035 7.9092L12.1275 7.6871C12.1744 7.63954 12.2225 7.57571 12.281 7.54321C12.3142 7.5248 12.3534 7.50754 12.3918 7.50444C12.476 7.49762 12.5655 7.50349 12.6502 7.50341L13.1511 7.50305L14.4733 7.503L14.9003 7.50271C14.9825 7.50259 15.0868 7.49112 15.1644 7.51629L15.1775 7.52095L15.2109 7.53301L15.2208 7.53719C15.3121 7.57454 15.3931 7.63447 15.4367 7.72508L15.4433 7.73899C15.5005 7.85708 15.5179 8.03618 15.4772 8.16201L15.4728 8.17469C15.4584 8.2187 15.4408 8.25764 15.4143 8.29603C15.3561 8.38009 15.2616 8.45542 15.1586 8.4733L15.1471 8.47517C15.0598 8.49056 14.9722 8.48501 14.8838 8.4846L14.5126 8.48342L13.2025 8.48481L12.93 8.48522C12.8543 8.48557 12.7852 8.48183 12.7134 8.50906L12.6992 8.51454C12.6862 8.51911 12.675 8.52119 12.6636 8.52978C12.6212 8.56187 12.5825 8.60989 12.5451 8.6478L12.3056 8.89132L11.5863 9.61466L11.288 9.91043C11.266 9.93198 11.2131 9.97176 11.1999 9.99733C11.197 10.0028 11.198 10.0095 11.197 10.0156C11.226 10.0598 11.2654 10.0957 11.3027 10.1329L11.5383 10.3606L12.3846 11.2115L12.6366 11.4661C12.6564 11.4851 12.6755 11.5 12.7011 11.5108L12.713 11.5156C12.734 11.5252 12.7502 11.5338 12.7741 11.536C12.841 11.542 12.9121 11.5374 12.9794 11.5375H13.3724L14.5972 11.5322L14.9768 11.5289C15.0482 11.5295 15.1341 11.5276 15.2014 11.5526L15.2121 11.5568L15.2598 11.5758C15.3618 11.6274 15.4434 11.7256 15.4758 11.8349L15.4794 11.8476C15.5057 11.9362 15.5044 12.1047 15.4766 12.1941L15.4722 12.207C15.4628 12.2369 15.4524 12.2639 15.4376 12.2916C15.3816 12.3969 15.2766 12.4806 15.1624 12.5144L15.1168 12.527C14.9004 12.545 14.6732 12.529 14.4552 12.5297L13.0812 12.529L12.6362 12.5289C12.5525 12.5288 12.4499 12.5415 12.3706 12.5142L12.3578 12.5095C12.3072 12.4911 12.2625 12.4573 12.2225 12.4216C12.1549 12.3615 12.093 12.2934 12.0288 12.2295L11.6268 11.83L10.4973 10.7076C10.3369 10.8472 10.1879 11.0087 10.0367 11.1589L9.27586 11.9202L8.91938 12.2789C8.85916 12.3389 8.79935 12.4088 8.73234 12.4604C8.68986 12.4932 8.62763 12.5182 8.57524 12.5271L8.56367 12.5289C8.4333 12.5513 8.28917 12.5378 8.15657 12.538L7.51994 12.5413L6.48011 12.5427C6.30883 12.5428 6.131 12.5532 5.96064 12.5416C5.91426 12.5384 5.85209 12.5258 5.80905 12.5086C5.70404 12.4667 5.59367 12.36 5.54718 12.2565L5.54052 12.2411L5.52969 12.2164L5.52604 12.207C5.49337 12.1252 5.49359 11.9328 5.52265 11.8505L5.53516 11.813C5.57235 11.704 5.65492 11.6209 5.75564 11.5693C5.80188 11.5456 5.84916 11.5295 5.90123 11.5244C5.97223 11.5173 6.04839 11.5227 6.11998 11.5226L6.53187 11.5225L7.85333 11.5222C7.97558 11.5223 8.11365 11.5352 8.23453 11.5212C8.28287 11.5156 8.33272 11.4794 8.36857 11.448C8.46137 11.3666 8.54725 11.2707 8.63442 11.1829L9.17482 10.6372L9.55465 10.2584C9.63906 10.1765 9.7297 10.0992 9.80565 10.0093L9.54779 9.75146L8.83872 9.04294L8.55951 8.7593C8.49751 8.69374 8.43752 8.62306 8.37167 8.56145C8.34265 8.53428 8.30578 8.50407 8.26695 8.49222C8.19985 8.47178 8.12139 8.4821 8.05207 8.48231L7.69196 8.4828L6.67873 8.48176L6.19298 8.48446C6.07018 8.48571 5.92783 8.50407 5.81029 8.46589C5.69514 8.42847 5.59511 8.34517 5.54346 8.2354L5.53745 8.2223C5.49066 8.12424 5.48997 7.94832 5.52286 7.84521L5.52713 7.83249C5.53594 7.80428 5.54443 7.77802 5.558 7.75166C5.61165 7.64743 5.71052 7.55831 5.82372 7.52372L5.8908 7.50643Z" fill="black"/>
<defs>
<linearGradient id="paint0_linear_106_16974" x1="17.75" y1="17.5" x2="6.74997" y2="3.99999" gradientUnits="userSpaceOnUse">
<stop stop-color="white"/>
<stop offset="1" stop-color="#9A9A9A"/>
</linearGradient>
</defs>
</svg>
